<svg width="107" height="74" viewBox="0 0 107 74" fill="none" xmlns="http://www.w3.org/2000/svg">
<path d="M65.7784 62.8317C64.4701 63.0112 63.5551 64.2172 63.7346 65.5254C63.914 66.8337 65.12 67.7487 66.4283 67.5693L65.7784 62.8317ZM15.7907 49.4085C15.7907 47.9495 16.4937 46.3402 18.225 44.6427C19.9644 42.9372 22.6046 41.2913 26.0608 39.858C32.9623 36.9958 42.6621 35.1696 53.5 35.1696V30.3877C42.1911 30.3877 31.8408 32.2841 24.2289 35.4408C20.4284 37.017 17.1961 38.9545 14.8771 41.2282C12.5501 43.5098 11.0088 46.2754 11.0088 49.4085H15.7907ZM53.5 35.1696C64.3378 35.1696 74.0377 36.9958 80.9392 39.858C84.3953 41.2913 87.0356 42.9372 88.775 44.6427C90.5063 46.3402 91.2092 47.9495 91.2092 49.4085H95.9911C95.9911 46.2754 94.4498 43.5098 92.1228 41.2282C89.8038 38.9545 86.5716 37.017 82.771 35.4408C75.1591 32.2841 64.8089 30.3877 53.5 30.3877V35.1696ZM39.3924 62.5594C32.0861 61.3851 25.9978 59.3467 21.8083 56.8556C17.5121 54.3011 15.7907 51.6517 15.7907 49.4085H11.0088C11.0088 54.2313 14.6006 58.1333 19.3643 60.9658C24.2347 63.8617 30.9529 66.0462 38.6335 67.2807L39.3924 62.5594ZM91.2092 49.4085C91.2092 51.7481 89.3298 54.5267 84.6657 57.1603C80.1311 59.7209 73.5727 61.7625 65.7784 62.8317L66.4283 67.5693C74.6063 66.4474 81.7962 64.2723 87.017 61.3242C92.1082 58.4494 95.9911 54.4275 95.9911 49.4085H91.2092Z" fill="#45BAFC"/>
<path d="M47.8113 65.521C48.4376 65.9812 48.2826 66.9567 47.5445 67.2L39.2008 69.9506C38.5207 70.1748 37.8445 69.5995 37.9569 68.8922L39.2207 60.9398C39.3331 60.2325 40.1544 59.8952 40.7315 60.3192L47.8113 65.521Z" fill="#45BAFC"/>
<path d="M21.3837 48.125L21.3751 47.9873V47.8495V19.5177V19.2656L21.404 19.0144C21.5585 17.6719 22.3538 16.2381 23.9542 14.7941C25.5527 13.3519 27.8567 11.9935 30.7719 10.8252C36.5978 8.49062 44.598 7.02224 53.4849 7.02224C62.5383 7.02224 70.6694 8.54609 76.5191 10.9557C79.447 12.1618 81.7294 13.5594 83.274 15.0339C84.816 16.5059 85.5285 17.9567 85.5902 19.3189L85.6061 19.6686L85.6249 19.7068V48.2121L85.5799 48.2979L85.5363 48.5642C85.4397 49.1546 85.219 49.7619 84.8592 50.3803C82.0805 48.0256 78.0571 46.1117 73.3385 44.723C67.6795 43.0577 60.8347 42.0928 53.4849 42.0928C46.1351 42.0928 39.2903 43.0577 33.6313 44.723C28.9126 46.1117 24.8893 48.0256 22.1105 50.3804C21.6624 49.6102 21.4296 48.8557 21.3837 48.125Z" fill="white" stroke="#45BAFC" stroke-width="3.34086"/>
<path d="M21.3751 22.6819C22.7373 23.6314 24.5737 24.5385 26.8516 24.8483V24.8796V24.9212V24.9633V25.0058V25.0489V25.0923V25.1363V25.1807V25.2256V25.2709V25.3167V25.363V25.4097V25.4568V25.5044V25.5524V25.6009V25.6498V25.6992V25.7489V25.7992V25.8498V25.9009V25.9523V26.0043V26.0566V26.1093V26.1625V26.216V26.27V26.3244V26.3792V26.4344V26.49V26.5459V26.6023V26.6591V26.7162V26.7738V26.8317V26.89V26.9487V27.0078V27.0672V27.127V27.1872V27.2477V27.3086V27.3699V27.4316V27.4935V27.5559V27.6186V27.6816V27.745V27.8088V27.8728V27.9373V28.002V28.0671V28.1325V28.1983V28.2644V28.3308V28.3975V28.4646V28.5319V28.5996V28.6676V28.7359V28.8046V28.8735V28.9427V29.0122V29.0821V29.1522V29.2226V29.2933V29.3643V29.4356V29.5071V29.579V29.6511V29.7235V29.7962V29.8691V29.9423V30.0158V30.0896V30.1636V30.2378V30.3124V30.3871V30.4622V30.5374V30.613V30.6887V30.7647V30.841V30.9175V30.9942V31.0712V31.1483V31.2257V31.3034V31.3812V31.4593V31.5376V31.6161V31.6948V31.7738V31.8529V31.9323V32.0118V32.0916V32.1715V32.2516V32.332V32.4125V32.4932V32.5741V32.6552V32.7364V32.8179V32.8995V32.9813V33.0633V33.1454V33.2277V33.3101V33.3928V33.4755V33.5585V33.6415V33.7248V33.8082V33.8917V33.9754V34.0592V34.1432V34.2273V34.3115V34.3958V34.4803V34.5649V34.6497V34.7345V34.8195V34.9046V34.9898V35.0752V35.1606V35.2461V35.3318V35.4175V35.5034V35.5893V35.6754V35.7615V35.8477V35.934V36.0204V36.1069V36.1935V36.2801V36.3668V36.4536V36.5404V36.6274V36.7144V36.8014V36.8885V36.9757V37.0629V37.1502V37.2375V37.3249V37.4123V37.4998V37.5873V37.6748V37.7624V37.85V37.9377V38.0253V38.1131V38.2008V38.2885V38.3763V38.4641V38.5519V38.6397V38.7275V38.8153V38.9031V38.991V39.0788V39.1666V39.2544V39.3422V39.43V39.5178V39.6056V39.6934V39.7811V39.8688V39.9565V40.0441V40.1318V40.2194V40.3069V40.3945V40.4819V40.5694V40.6568V40.7441V40.8314V40.9187V41.0059V41.093V41.1801V41.2671V41.354V41.4409V41.5277V41.6145V41.7011V41.7877V41.8742V41.9606V42.047V42.1333V42.2194V42.3055V42.3915V42.4774V42.5632V42.6488V42.7344V42.8199V42.9053V42.9905V43.0757V43.1607V43.2456V43.3304V43.4151V43.4996V43.584V43.6683V43.7524V43.8365V43.9203V44.0041V44.0877V44.1711V44.2544V44.3376V44.4205V44.5034V44.5861V44.6686V44.7509V44.8331V44.9152V44.997V45.0787V45.1602V45.2416V45.3227V45.4037V45.4845V45.5651V45.6455V45.7257V45.8057V45.8855V45.9652V46.0446V46.1238V46.2028V46.2816V46.3602V46.4386V46.5168V46.5947V46.6725V46.75V46.8272V46.9043V46.9811V47.0577V47.134V47.2101V47.286V47.3616V47.437V47.5121V47.587V47.6616V47.736V47.8101V47.8839V47.9575V48.0308V48.1039V48.1767V48.2492V48.3214V48.3934V48.4651V48.5365V48.6076V48.6784V48.7489V48.8192V48.8891V48.9587V49.0281V49.0971V49.1659V49.2343V49.3024V49.3702V49.4377V49.5049V49.5718V49.6383V49.7045V49.7704V49.836V49.9012V49.9661V50.0307V50.0949V50.1587V50.2223V50.2855V50.3483V50.4108V50.4729V50.5347V50.5961V50.6572V50.7179V50.7782V50.8381V50.8977V50.9569V51.0158V51.0742V51.1323V51.19V51.2473V51.3043V51.3608V51.4169V51.4727V51.528V51.583V51.6375V51.6916V51.7454V51.7987V51.8516V51.9041V51.9562V52.0078V52.0591V52.1099V52.1602V52.2102V52.2597V52.3088V52.3574V52.4057V52.4534V52.5007V52.5476V52.594V52.64V52.6855V52.7306V52.7752V52.8193V52.863V52.9062V52.949V52.9912V53.0201C25.7411 53.0628 24.4931 52.8599 23.4138 52.4442C22.6688 52.1572 22.1075 51.8075 21.7598 51.4692C21.4177 51.1362 21.3751 50.9148 21.3751 50.8129V33.7764V33.4176V33.3279V33.2384V33.1489V33.0594V32.97V32.8806V32.7913V32.702V32.6128V32.5237V32.4346V32.3456V31.9904V31.9018V31.8132V31.7248V31.6365V31.284V31.1961V31.1083V31.0207V30.9331V30.584V30.4971V30.4102V30.3235V30.2369V29.8918V29.7202V29.6345V29.5491V29.2087V29.0395V28.9551V28.8709V28.5358V28.3694V28.2865V28.2037V28.1211V28.0388V27.8746V27.5487V26.9072V25.6699V25.0766V24.7869V24.6438V24.5727V24.5019V24.222V24.0839V24.0153V23.9471V23.8792V23.8117V23.6776V23.4135V23.3483V23.2835V23.155V23.0913V23.0279V22.9649V22.9023V22.8401V22.7782V22.7167V22.6819Z" fill="white" stroke="#45BAFC" stroke-width="3.34086"/>
<path d="M85.6249 22.0939C84.2633 23.0576 82.4269 23.9789 80.1484 24.2934V24.3125V24.3544V24.3967V24.4396V24.4829V24.5266V24.5709V24.6156V24.6608V24.7065V24.7526V24.7992V24.8463V24.8938V24.9418V24.9902V25.0391V25.0884V25.1382V25.1884V25.2391V25.2902V25.3417V25.3936V25.446V25.4989V25.5521V25.6058V25.6599V25.7144V25.7693V25.8246V25.8804V25.9366V25.9931V26.0501V26.1075V26.1652V26.2234V26.2819V26.3409V26.4002V26.4599V26.5201V26.5805V26.6414V26.7026V26.7643V26.8262V26.8886V26.9513V27.0144V27.0778V27.1416V27.2058V27.2703V27.3352V27.4004V27.4659V27.5318V27.5981V27.6646V27.7316V27.7988V27.8664V27.9343V28.0025V28.0711V28.14V28.2092V28.2787V28.3485V28.4186V28.4891V28.5598V28.6309V28.7022V28.7739V28.8459V28.9181V28.9906V29.0635V29.1366V29.21V29.2836V29.3576V29.4318V29.5063V29.5811V29.6561V29.7315V29.807V29.8829V29.959V30.0353V30.1119V30.1888V30.2659V30.3432V30.4208V30.4986V30.5767V30.655V30.7336V30.8123V30.8913V30.9706V31.05V31.1297V31.2096V31.2897V31.37V31.4506V31.5313V31.6122V31.6934V31.7747V31.8563V31.938V32.02V32.1021V32.1844V32.267V32.3497V32.4325V32.5156V32.5988V32.6822V32.7658V32.8495V32.9334V33.0175V33.1017V33.1861V33.2707V33.3554V33.4403V33.5253V33.6104V33.6957V33.7811V33.8667V33.9524V34.0383V34.1243V34.2104V34.2966V34.3829V34.4694V34.556V34.6427V34.7296V34.8165V34.9036V34.9907V35.078V35.1653V35.2528V35.3403V35.428V35.5157V35.6036V35.6915V35.7795V35.8676V35.9557V36.044V36.1323V36.2207V36.3091V36.3976V36.4862V36.5749V36.6636V36.7523V36.8411V36.93V37.0189V37.1079V37.1969V37.2859V37.375V37.4642V37.5533V37.6425V37.7317V37.821V37.9102V37.9995V38.0888V38.1782V38.2675V38.3569V38.4462V38.5356V38.625V38.7143V38.8037V38.8931V38.9825V39.0718V39.1612V39.2505V39.3398V39.4291V39.5184V39.6076V39.6969V39.7861V39.8752V39.9644V40.0535V40.1426V40.2316V40.3206V40.4095V40.4984V40.5872V40.676V40.7647V40.8534V40.942V41.0305V41.119V41.2074V41.2958V41.384V41.4722V41.5604V41.6484V41.7363V41.8242V41.912V41.9997V42.0873V42.1748V42.2622V42.3495V42.4367V42.5237V42.6107V42.6976V42.7844V42.871V42.9575V43.0439V43.1302V43.2164V43.3024V43.3883V43.4741V43.5597V43.6452V43.7305V43.8158V43.9008V43.9857V44.0705V44.1551V44.2396V44.3239V44.408V44.492V44.5758V44.6594V44.7429V44.8262V44.9093V44.9923V45.075V45.1576V45.24V45.3222V45.4043V45.4861V45.5677V45.6491V45.7304V45.8114V45.8922V45.9729V46.0533V46.1335V46.2134V46.2932V46.3727V46.4521V46.5311V46.61V46.6886V46.767V46.8452V46.9231V47.0008V47.0783V47.1555V47.2324V47.3091V47.3856V47.4618V47.5377V47.6134V47.6888V47.764V47.8389V47.9135V47.9878V48.0619V48.1357V48.2092V48.2824V48.3553V48.428V48.5003V48.5724V48.6442V48.7157V48.7868V48.8577V48.9283V48.9985V49.0685V49.1381V49.2075V49.2765V49.3451V49.4135V49.4815V49.5493V49.6166V49.6837V49.7504V49.8168V49.8828V49.9485V50.0139V50.0789V50.1435V50.2078V50.2717V50.3353V50.3986V50.4614V50.5239V50.5861V50.6478V50.7092V50.7702V50.8309V50.8911V50.951V51.0105V51.0696V51.1283V51.1866V51.2445V51.3021V51.3592V51.4159V51.4722V51.5282V51.5837V51.6387V51.6934V51.7477V51.8015V51.8549V51.9079V51.9605V52.0126V52.0643V52.1156V52.1664V52.2168V52.2668V52.3163V52.3653V52.4139V52.4621V52.5098V52.557V52.6038V52.6502V52.696V52.7414V52.7863V52.8308V52.8747V52.9182V52.9613V53.0038V53.02C81.2547 53.0634 82.4995 52.8579 83.5771 52.4355C84.3199 52.1444 84.881 51.7891 85.2297 51.4437C85.5723 51.1045 85.6249 50.8691 85.6249 50.7446V33.4079V33.3166V33.2253V33.134V33.0428V32.6783V32.5873V32.4963V32.4054V32.3146V32.2238V32.1331V32.0425V31.952V31.5905V31.2303V30.8716V30.6928V30.6036V30.5145V30.1593V29.9824V29.8942V29.8061V29.7181V29.6302V29.5425V29.4549V29.2802V29.1931V29.1061V28.7597V28.5875V28.5017V28.416V28.3305V28.2452V28.16V28.0751V27.9057V27.8213V27.737V27.653V27.5692V27.4022V27.0705V26.4178V25.1586V24.5549V24.26V24.1144V24.0421V23.9701V23.6852V23.5447V23.4749V23.4055V23.3364V23.2677V23.1312V22.8625V22.7962V22.7302V22.5994V22.5346V22.4701V22.406V22.3423V22.2789V22.216V22.1534V22.0939Z" fill="white" stroke="#45BAFC" stroke-width="3.34086"/>
<path d="M45.2473 32.7786H44.3414C43.0343 32.7786 42.2174 31.3637 42.8709 30.2318L47.6237 21.9998C48.2772 20.8679 49.911 20.8679 50.5645 21.9998L55.3172 30.2318C55.9707 31.3637 55.1538 32.7786 53.8468 32.7786H52.9409" stroke="#45BAFC" stroke-width="2.54685" stroke-linecap="round"/>
<path d="M59.8158 32.7786H60.529C61.5578 32.7786 62.2009 31.6648 61.6864 30.7738L57.9453 24.294C57.4308 23.4029 56.1448 23.4029 55.6303 24.294L53.7598 27.5339" stroke="#45BAFC" stroke-width="2.54685" stroke-linecap="round"/>
<circle cx="62.3811" cy="21.0744" r="2.14619" stroke="#45BAFC" stroke-width="1.33652" stroke-linecap="round"/>
</svg>
