<svg width="31" height="30" viewBox="0 0 31 30" fill="none" xmlns="http://www.w3.org/2000/svg">
<path d="M21.6075 4.20386H8.5601C6.13702 4.20386 4.1731 6.16778 4.1731 8.59086V21.32C4.1731 23.7431 6.13702 25.707 8.5601 25.707H21.6075C24.0306 25.707 25.9945 23.7431 25.9945 21.32V8.59086C25.9945 6.16778 24.0306 4.20386 21.6075 4.20386ZM15.0838 20.0925C12.247 20.0925 9.94667 17.7922 9.94667 14.9554C9.94667 12.1187 12.247 9.81832 15.0838 9.81832C17.9206 9.81832 20.2209 12.1187 20.2209 14.9554C20.2209 17.7922 17.9206 20.0925 15.0838 20.0925ZM21.7075 9.68648C21.1028 9.68648 20.6119 9.1955 20.6119 8.59086C20.6119 7.98623 21.1028 7.49525 21.7075 7.49525C22.3121 7.49525 22.8031 7.98623 22.8031 8.59086C22.8031 9.1955 22.3121 9.68648 21.7075 9.68648Z" fill="white" fill-opacity="0.6"/>
</svg>
