<svg width="140" height="35" viewBox="0 0 140 35" fill="none" xmlns="http://www.w3.org/2000/svg">
<path d="M43.9739 5.8452H39.8095V15.9483H42.1117V12.517H43.9739C46.32 12.517 47.3758 10.8747 47.3758 9.18845C47.3758 7.51682 46.32 5.8452 43.9739 5.8452ZM43.8713 10.5081H42.1117V7.85408H43.8859C44.7364 7.85408 45.059 8.54326 45.059 9.18845C45.059 9.83363 44.7364 10.5081 43.8713 10.5081Z" fill="white"/>
<path d="M54.5476 5.8452V9.89229H51.219V5.8452H48.9168V15.9483H51.219V11.9598H54.5476V15.9483H56.8497V5.8452H54.5476Z" fill="white"/>
<path d="M59.1841 15.9483H61.4862V5.8452H59.1841V15.9483Z" fill="white"/>
<path d="M63.8236 15.9483H69.8356V13.9394H66.1258V5.8452H63.8236V15.9483Z" fill="white"/>
<path d="M71.2842 15.9483H77.2962V13.9394H73.5864V5.8452H71.2842V15.9483Z" fill="white"/>
<path d="M78.7448 15.9483H81.0469V5.8452H78.7448V15.9483Z" fill="white"/>
<path d="M87.5488 5.8452H83.3844V15.9483H85.6865V12.517H87.5488C89.8949 12.517 90.9507 10.8747 90.9507 9.18845C90.9507 7.51682 89.8949 5.8452 87.5488 5.8452ZM87.4461 10.5081H85.6865V7.85408H87.4608C88.3113 7.85408 88.6338 8.54326 88.6338 9.18845C88.6338 9.83363 88.3113 10.5081 87.4461 10.5081Z" fill="white"/>
<path d="M98.6078 16.0802C100.455 16.0802 102.332 15.1564 102.332 12.9863C102.332 11.1533 100.866 10.4055 99.4289 9.9656L98.3732 9.64301C97.4347 9.37907 97.3761 8.9245 97.3761 8.71922C97.3761 8.16201 97.8453 7.72211 98.5638 7.72211C99.3556 7.72211 99.7222 8.23533 99.7222 8.83652H102.024C102.024 6.87163 100.543 5.71323 98.6078 5.71323C96.5989 5.71323 95.0446 6.94495 95.0446 8.76321C95.0446 9.71633 95.4698 11.08 97.6987 11.6812L98.9011 12.0478C99.7955 12.3411 100.015 12.7077 100.015 13.1036C100.015 13.7634 99.4436 14.1007 98.6958 14.1007C97.904 14.1007 97.2588 13.6021 97.2588 12.9569H94.9566C94.9566 14.8192 96.4523 16.0802 98.6078 16.0802Z" fill="white"/>
<path d="M109.721 5.8452V9.89229H106.393V5.8452H104.091V15.9483H106.393V11.9598H109.721V15.9483H112.024V5.8452H109.721Z" fill="white"/>
<path d="M116.66 13.9394V12.0038H120.326V9.93628H116.66V7.85408H120.839V5.8452H114.358V15.9483H120.971V13.9394H116.66Z" fill="white"/>
<path d="M125.152 13.9394V12.0038H128.817V9.93628H125.152V7.85408H129.331V5.8452H122.849V15.9483H129.463V13.9394H125.152Z" fill="white"/>
<path d="M136.678 5.8452V11.5786L133.453 5.8452H131.341V15.9483H133.643V10.1416L136.957 15.9483H138.981V5.8452H136.678Z" fill="white"/>
<path d="M43.3114 19.0904H39.8602V27.7687H41.0064V24.5065H43.3114C45.1503 24.5065 45.8935 23.1714 45.8935 21.7985C45.8935 20.4508 45.1503 19.0904 43.3114 19.0904ZM43.2358 23.4359H41.0064V20.1485H43.2988C44.3316 20.1485 44.7473 20.9924 44.7473 21.7985C44.7473 22.6298 44.319 23.4359 43.2358 23.4359Z" fill="white"/>
<path d="M52.9513 19.0904V22.9321H48.6941V19.0904H47.5479V27.7687H48.6941V23.9775H52.9513V27.7687H54.0975V19.0904H52.9513Z" fill="white"/>
<path d="M60.2811 27.8947C62.7624 27.8947 64.6895 25.9046 64.6895 23.4485C64.6895 20.9798 62.7624 18.9897 60.2811 18.9897C57.8124 18.9897 55.8979 20.9798 55.8979 23.4485C55.8979 25.9046 57.8124 27.8947 60.2811 27.8947ZM60.2811 26.8367C58.4548 26.8367 57.0441 25.3 57.0441 23.4485C57.0441 21.5844 58.4548 20.0477 60.2811 20.0477C62.1326 20.0477 63.5433 21.5844 63.5433 23.4485C63.5433 25.3 62.1326 26.8367 60.2811 26.8367Z" fill="white"/>
<path d="M71.5757 19.0904H65.1394V20.1485H67.7845V27.7687H68.9307V20.1485H71.5757V19.0904Z" fill="white"/>
<path d="M76.3945 27.8947C78.8758 27.8947 80.8029 25.9046 80.8029 23.4485C80.8029 20.9798 78.8758 18.9897 76.3945 18.9897C73.9257 18.9897 72.0112 20.9798 72.0112 23.4485C72.0112 25.9046 73.9257 27.8947 76.3945 27.8947ZM76.3945 26.8367C74.5681 26.8367 73.1574 25.3 73.1574 23.4485C73.1574 21.5844 74.5681 20.0477 76.3945 20.0477C78.246 20.0477 79.6567 21.5844 79.6567 23.4485C79.6567 25.3 78.246 26.8367 76.3945 26.8367Z" fill="white"/>
<path d="M87.689 19.0904H81.2528V20.1485H83.8978V27.7687H85.044V20.1485H87.689V19.0904Z" fill="white"/>
<path d="M90.2809 26.7107V24.0405H93.7573V22.9699H90.2809V20.1485H94.2611V19.0904H89.1474V27.7687H94.3871V26.7107H90.2809Z" fill="white"/>
<path d="M99.8393 27.8947C101.174 27.8947 102.333 27.3279 103.102 26.421L102.27 25.7157C101.691 26.3958 100.809 26.8367 99.8393 26.8367C98.013 26.8367 96.5771 25.3 96.5771 23.4485C96.5771 21.5844 98.013 20.0603 99.8393 20.0603C100.809 20.0603 101.691 20.5011 102.27 21.1813L103.102 20.4759C102.333 19.5691 101.174 19.0023 99.8393 19.0023C97.3832 19.0023 95.4309 20.9924 95.4309 23.4485C95.4309 25.9046 97.3832 27.8947 99.8393 27.8947Z" fill="white"/>
<path d="M110.135 19.0904V22.9321H105.878V19.0904H104.732V27.7687H105.878V23.9775H110.135V27.7687H111.281V19.0904H110.135Z" fill="white"/>
<path d="M118.8 19.0904V25.6779L114.82 19.0904H113.686V27.7687H114.833V21.1561L118.838 27.7687H119.946V19.0904H118.8Z" fill="white"/>
<path d="M122.358 27.7687H123.504V19.0904H122.358V27.7687Z" fill="white"/>
<path d="M129.717 27.8947C131.052 27.8947 132.211 27.3279 132.979 26.421L132.148 25.7157C131.568 26.3958 130.687 26.8367 129.717 26.8367C127.89 26.8367 126.454 25.3 126.454 23.4485C126.454 21.5844 127.89 20.0603 129.717 20.0603C130.687 20.0603 131.568 20.5011 132.148 21.1813L132.979 20.4759C132.211 19.5691 131.052 19.0023 129.717 19.0023C127.261 19.0023 125.308 20.9924 125.308 23.4485C125.308 25.9046 127.261 27.8947 129.717 27.8947Z" fill="white"/>
<path d="M137.103 27.8947C138.904 27.8947 140 26.6729 140 25.3252C140 24.0908 139.118 23.2847 137.645 22.9195L136.511 22.6424C135.352 22.3653 135.251 21.7355 135.251 21.4332C135.251 20.5767 136.058 20.0477 136.927 20.0477C137.859 20.0477 138.577 20.6397 138.577 21.5088H139.71C139.71 19.9595 138.489 18.9897 136.964 18.9897C135.453 18.9897 134.105 19.9469 134.105 21.4458C134.105 22.1511 134.395 23.2344 136.234 23.6752L137.355 23.9523C138.085 24.1412 138.854 24.5191 138.854 25.363C138.854 26.1313 138.237 26.8367 137.103 26.8367C135.944 26.8367 135.214 26.0557 135.176 25.2874H134.042C134.055 26.6351 135.277 27.8947 137.103 27.8947Z" fill="white"/>
<path d="M10.6599 16.2054V8.85214H13.6534C15.3297 8.85214 16.128 10.0709 16.128 11.2897C16.128 12.5085 15.3696 13.7272 13.6534 13.7272H12.4161V16.1648H10.6599V16.2054ZM12.3762 10.3959V12.1834H13.5336C14.0924 12.1834 14.3319 11.6959 14.3319 11.2897C14.3319 10.8834 14.1323 10.3959 13.5336 10.3959H12.3762Z" fill="white"/>
<path d="M19.5207 14.0116C19.5606 14.4179 19.8001 14.7429 20.3988 14.7429C20.8378 14.7429 21.2769 14.5398 21.2769 14.0929C21.2769 13.971 21.2769 13.7273 20.5584 13.4835L19.7203 13.1991C18.1237 12.7522 17.8443 11.696 17.8443 11.046C17.8443 9.70532 18.922 8.81155 20.3589 8.81155C21.7957 8.81155 22.8335 9.66469 22.8335 11.0866H21.0773C21.0773 10.6803 20.8378 10.396 20.319 10.396C19.84 10.396 19.5606 10.6397 19.5606 10.9647C19.5606 11.0866 19.6005 11.371 20.2391 11.5741L21.0773 11.8585C22.9532 12.4679 23.0729 13.5648 23.0729 14.0929C23.0729 15.7179 21.6361 16.3273 20.3988 16.3273C18.8023 16.3273 17.7246 15.4335 17.7246 14.0523H19.5207V14.0116Z" fill="white"/>
<path d="M10.6599 25.7119V18.3586H13.6534C15.3297 18.3586 16.128 19.5774 16.128 20.7962C16.128 22.0149 15.3696 23.2337 13.6534 23.2337H12.4161V25.6712H10.6599V25.7119ZM12.3762 19.943V21.7305H13.5336C14.0924 21.7305 14.3319 21.243 14.3319 20.8368C14.3319 20.4305 14.1323 19.943 13.5336 19.943H12.3762Z" fill="white"/>
<path d="M17.6447 19.9429V18.3992H23.1128V19.9429H21.2369V25.7118H19.4807V19.9429H17.6447Z" fill="white"/>
<path fill-rule="evenodd" clip-rule="evenodd" d="M27.7688 6.56693H6.56693V27.7688H27.7688V6.56693ZM5.06592 5.06592V29.2698H29.2698V5.06592H5.06592Z" fill="white"/>
<path fill-rule="evenodd" clip-rule="evenodd" d="M17.1678 32.8347C25.8204 32.8347 32.8347 25.8204 32.8347 17.1678C32.8347 8.51529 25.8204 1.50101 17.1678 1.50101C8.51529 1.50101 1.50101 8.51529 1.50101 17.1678C1.50101 25.8204 8.51529 32.8347 17.1678 32.8347ZM17.1678 34.3357C26.6494 34.3357 34.3357 26.6494 34.3357 17.1678C34.3357 7.6863 26.6494 0 17.1678 0C7.6863 0 0 7.6863 0 17.1678C0 26.6494 7.6863 34.3357 17.1678 34.3357Z" fill="white"/>
</svg>
