<svg width="31" height="30" viewBox="0 0 31 30" fill="none" xmlns="http://www.w3.org/2000/svg">
<path d="M2.11487 24.7213C4.95669 25.0265 7.80764 24.2334 10.0836 22.5046C9.73439 22.4476 9.45641 22.4191 9.17843 22.3549C8.26883 22.1753 7.41966 21.7679 6.71037 21.1708C6.00108 20.5737 5.45484 19.8064 5.12276 18.9408C4.99446 18.6343 5.0301 18.6129 5.37223 18.6414C6.03918 18.7153 6.71381 18.6768 7.36799 18.5273C6.78173 18.3681 6.22041 18.1282 5.70011 17.8146C4.95408 17.3533 4.32761 16.7222 3.87179 15.9728C3.41596 15.2234 3.14367 14.3769 3.07711 13.5023V13.3598C3.07711 13.0176 3.07711 13.0105 3.41211 13.1602C4.06002 13.4754 4.76632 13.6525 5.48627 13.6805C5.19983 13.4667 4.93271 13.2282 4.68797 12.9677C3.87963 12.1315 3.35351 11.0631 3.18348 9.91255C3.01345 8.76199 3.20806 7.58708 3.73999 6.55279C3.8469 6.35322 3.91105 6.32471 4.06786 6.55279C5.39666 8.1413 7.03014 9.4476 8.87194 10.3946C10.6741 11.335 12.6474 11.9023 14.6739 12.0625C15.1942 12.1053 15.1871 12.0982 15.1301 11.5564C14.9897 10.4221 15.2028 9.27217 15.7403 8.26347C16.2777 7.25478 17.1134 6.43652 18.1332 5.9204C19.1529 5.40427 20.3071 5.21542 21.4382 5.37963C22.5693 5.54384 23.6222 6.0531 24.4531 6.8379C24.5211 6.91001 24.6075 6.96209 24.703 6.98849C24.7985 7.01488 24.8995 7.01457 24.9948 6.98758C25.9903 6.75515 26.9494 6.38827 27.8459 5.89704C27.9314 5.85428 27.9956 5.77587 28.1524 5.79726C27.7616 6.98224 26.9929 8.00633 25.9642 8.71249C26.9475 8.5947 27.9081 8.33292 28.8153 7.93557C28.8153 8.08525 28.7582 8.1494 28.7083 8.22068C28.075 9.11372 27.3137 9.90867 26.4489 10.5799C26.3593 10.6406 26.2875 10.7242 26.2412 10.822C26.1948 10.9197 26.1754 11.0281 26.1851 11.1359C26.2776 14.5343 25.2701 17.8718 23.3127 20.6514C22.1611 22.378 20.6579 23.8419 18.9014 24.9473C17.145 26.0528 15.1749 26.7749 13.1201 27.0663C9.70323 27.6347 6.19438 27.0557 3.14126 25.4198C2.79913 25.2416 2.47125 25.0349 2.12912 24.8425L2.11487 24.7213Z" fill="white" fill-opacity="0.6"/>
</svg>
